<mxfile host="app.diagrams.net" modified="2024-04-24T08:23:10.843Z" agent="Mozilla/5.0 (X11; Linux x86_64) AppleWebKit/537.36 (KHTML, like Gecko) Chrome/122.0.0.0 Safari/537.36" version="24.2.5" etag="tXetBxgI_Q2rSOiklYy1" type="github">
  <diagram name="第 1 页" id="HYePOvqadmExIdz0bDAq">
    <mxGraphModel>
      <root>
        <mxCell id="0" />
        <mxCell id="1" parent="0" />
      </root>
    </mxGraphModel>
  </diagram>
</mxfile>
